<svg width="1654" height="1623" viewBox="0 0 1654 1623" fill="none" xmlns="http://www.w3.org/2000/svg">
<path d="M777.708 27.9255C808.286 10.602 845.714 10.6019 876.292 27.9255L1492.5 377.023C1523.83 394.777 1543.2 428.012 1543.2 464.03V1158.97C1543.2 1194.99 1523.83 1228.22 1492.5 1245.98L876.292 1595.07C845.714 1612.4 808.286 1612.4 777.708 1595.07L161.505 1245.98C130.166 1228.22 110.797 1194.99 110.797 1158.97V464.03C110.797 428.012 130.166 394.777 161.505 377.023L777.708 27.9255Z" fill="url(#paint0_linear_4_0)"/>
<path d="M777.228 167.228C807.819 149.886 845.271 149.886 875.862 167.228L1368.76 446.653C1400.08 464.411 1419.44 497.638 1419.44 533.646V1089.35C1419.44 1125.36 1400.08 1158.59 1368.76 1176.35L875.862 1455.77C845.271 1473.11 807.819 1473.11 777.228 1455.77L284.332 1176.35C253.007 1158.59 233.649 1125.36 233.649 1089.35V533.646C233.649 497.638 253.007 464.411 284.332 446.653L777.228 167.228Z" fill="#141517"/>
<mask id="mask0_4_0" style="mask-type:alpha" maskUnits="userSpaceOnUse" x="234" y="154" width="1187" height="1315">
<path d="M778.138 167.228C808.729 149.886 846.181 149.886 876.772 167.228L1369.67 446.653C1400.99 464.411 1420.35 497.638 1420.35 533.646V1089.35C1420.35 1125.36 1400.99 1158.59 1369.67 1176.35L876.772 1455.77C846.181 1473.11 808.729 1473.11 778.138 1455.77L285.242 1176.35C253.917 1158.59 234.559 1125.36 234.559 1089.35V533.646C234.559 497.638 253.917 464.411 285.242 446.653L778.138 167.228Z" fill="#141517"/>
</mask>
<g mask="url(#mask0_4_0)">
<path d="M826.09 39.1413L1511.16 426.914L826.09 814.686L141.018 426.914L826.09 39.1413Z" fill="white" fill-opacity="0.05"/>
<path d="M825.921 813.369L1510.31 425.079L1509.96 1201.07L825.573 1589.36L825.921 813.369Z" fill="white" fill-opacity="0.025"/>
</g>
<defs>
<linearGradient id="paint0_linear_4_0" x1="0" y1="0" x2="1622.71" y2="1653.7" gradientUnits="userSpaceOnUse">
<stop stop-color="#FF00FF"/>
<stop offset="1" stop-color="#4A86E8"/>
</linearGradient>
</defs>
</svg>
